{
    "asset" : {
        "generator" : "Khronos glTF Blender I/O v1.5.17",
        "version" : "2.0"
    },
    "scene" : 0,
    "scenes" : [
        {
            "name" : "Scene",
            "nodes" : [
                0,
                1,
                2,
                3,
                4,
                5,
                6,
                7
            ]
        }
    ],
    "nodes" : [
        {
            "mesh" : 0,
            "name" : "coral",
            "rotation" : [
                0.15226905047893524,
                0.012229328975081444,
                -0.08603254705667496,
                0.9845115542411804
            ],
            "scale" : [
                0.10108458995819092,
                0.10108458995819092,
                0.10108458995819092
            ],
            "translation" : [
                -0.7372162342071533,
                1.3755850791931152,
                -0.1918419897556305
            ]
        },
        {
            "mesh" : 1,
            "name" : "corral",
            "rotation" : [
                0.1782463639974594,
                0.03379340469837189,
                -0.20105822384357452,
                0.9626327753067017
            ],
            "scale" : [
                0.10108458995819092,
                0.10108458995819092,
                0.10108458995819092
            ],
            "translation" : [
                0.9795851111412048,
                1.3396904468536377,
                -0.5572753548622131
            ]
        },
        {
            "mesh" : 2,
            "name" : "coral.001",
            "rotation" : [
                0.39206111431121826,
                0.03321756422519684,
                -0.08029787242412567,
                0.9158258438110352
            ],
            "scale" : [
                0.0721905380487442,
                0.0721905380487442,
                0.0721905380487442
            ],
            "translation" : [
                0.058944761753082275,
                1.005584478378296,
                1.4260261058807373
            ]
        },
        {
            "mesh" : 3,
            "name" : "Coral.007",
            "scale" : [
                0.0612015500664711,
                0.0612015500664711,
                0.0612015500664711
            ],
            "translation" : [
                -0.13484728336334229,
                0.5155556201934814,
                -0.6486309766769409
            ]
        },
        {
            "name" : "Sun",
            "rotation" : [
                0.3053336441516876,
                0,
                0.36757656931877136,
                0.8784411549568176
            ],
            "translation" : [
                -1.6293526887893677,
                1.5848448276519775,
                1.678727149963379
            ]
        },
        {
            "name" : "Camera",
            "rotation" : [
                0.43045932054519653,
                0.5609856247901917,
                -0.43045926094055176,
                0.5609855055809021
            ],
            "translation" : [
                6.851478099822998,
                1.645944595336914,
                0
            ]
        },
        {
            "name" : "Point",
            "translation" : [
                0.8672212362289429,
                0.29218611121177673,
                0.11780843138694763
            ]
        },
        {
            "name" : "sunDow",
            "rotation" : [
                0.32164016366004944,
                0.28400468826293945,
                0.8758529424667358,
                -0.22084052860736847
            ],
            "translation" : [
                2.680661916732788,
                -2.190000057220459,
                0
            ]
        }
    ],
    "animations" : [
        {
            "channels" : [
                {
                    "sampler" : 0,
                    "target" : {
                        "node" : 5,
                        "path" : "translation"
                    }
                },
                {
                    "sampler" : 1,
                    "target" : {
                        "node" : 5,
                        "path" : "rotation"
                    }
                },
                {
                    "sampler" : 2,
                    "target" : {
                        "node" : 5,
                        "path" : "scale"
                    }
                }
            ],
            "name" : "CameraAction",
            "samplers" : [
                {
                    "input" : 15,
                    "interpolation" : "LINEAR",
                    "output" : 16
                },
                {
                    "input" : 15,
                    "interpolation" : "LINEAR",
                    "output" : 17
                },
                {
                    "input" : 15,
                    "interpolation" : "LINEAR",
                    "output" : 18
                }
            ]
        }
    ],
    "materials" : [
        {
            "doubleSided" : true,
            "name" : "coral1",
            "pbrMetallicRoughness" : {
                "baseColorTexture" : {
                    "index" : 0
                },
                "metallicFactor" : 0,
                "roughnessFactor" : 0.5
            }
        },
        {
            "doubleSided" : true,
            "name" : "Material.005",
            "pbrMetallicRoughness" : {
                "baseColorTexture" : {
                    "index" : 1
                },
                "metallicFactor" : 0,
                "roughnessFactor" : 0.5
            }
        }
    ],
    "meshes" : [
        {
            "name" : "Cylinder",
            "primitives" : [
                {
                    "attributes" : {
                        "POSITION" : 0,
                        "NORMAL" : 1,
                        "TEXCOORD_0" : 2
                    },
                    "indices" : 3
                }
            ]
        },
        {
            "name" : "Cylinder.003",
            "primitives" : [
                {
                    "attributes" : {
                        "POSITION" : 4,
                        "NORMAL" : 5,
                        "TEXCOORD_0" : 6
                    },
                    "indices" : 3
                }
            ]
        },
        {
            "name" : "Cylinder.005",
            "primitives" : [
                {
                    "attributes" : {
                        "POSITION" : 7,
                        "NORMAL" : 8,
                        "TEXCOORD_0" : 9
                    },
                    "indices" : 3,
                    "material" : 0
                }
            ]
        },
        {
            "name" : "Cube.018",
            "primitives" : [
                {
                    "attributes" : {
                        "POSITION" : 10,
                        "NORMAL" : 11,
                        "TEXCOORD_0" : 12,
                        "COLOR_0" : 13
                    },
                    "indices" : 14,
                    "material" : 1
                }
            ]
        }
    ],
    "textures" : [
        {
            "sampler" : 0,
            "source" : 0
        },
        {
            "sampler" : 0,
            "source" : 0
        }
    ],
    "images" : [
        {
            "bufferView" : 10,
            "mimeType" : "image/png",
            "name" : "coral"
        }
    ],
    "accessors" : [
        {
            "bufferView" : 0,
            "componentType" : 5126,
            "count" : 810,
            "max" : [
                3.379789352416992,
                -6.718055725097656,
                3.8413825035095215
            ],
            "min" : [
                0.2814352512359619,
                -10.23306655883789,
                -0.043068647384643555
            ],
            "type" : "VEC3"
        },
        {
            "bufferView" : 1,
            "componentType" : 5126,
            "count" : 810,
            "type" : "VEC3"
        },
        {
            "bufferView" : 2,
            "componentType" : 5126,
            "count" : 810,
            "type" : "VEC2"
        },
        {
            "bufferView" : 3,
            "componentType" : 5123,
            "count" : 1260,
            "type" : "SCALAR"
        },
        {
            "bufferView" : 4,
            "componentType" : 5126,
            "count" : 810,
            "max" : [
                3.379789352416992,
                -6.718055725097656,
                3.8413825035095215
            ],
            "min" : [
                0.2814352512359619,
                -10.23306655883789,
                -0.043068647384643555
            ],
            "type" : "VEC3"
        },
        {
            "bufferView" : 5,
            "componentType" : 5126,
            "count" : 810,
            "type" : "VEC3"
        },
        {
            "bufferView" : 6,
            "componentType" : 5126,
            "count" : 810,
            "type" : "VEC2"
        },
        {
            "bufferView" : 7,
            "componentType" : 5126,
            "count" : 810,
            "max" : [
                3.379789352416992,
                -6.718055725097656,
                3.8413825035095215
            ],
            "min" : [
                0.2814352512359619,
                -10.23306655883789,
                -0.043068647384643555
            ],
            "type" : "VEC3"
        },
        {
            "bufferView" : 8,
            "componentType" : 5126,
            "count" : 810,
            "type" : "VEC3"
        },
        {
            "bufferView" : 9,
            "componentType" : 5126,
            "count" : 810,
            "type" : "VEC2"
        },
        {
            "bufferView" : 11,
            "componentType" : 5126,
            "count" : 47218,
            "max" : [
                26.66405487060547,
                10.916446685791016,
                33.89170455932617
            ],
            "min" : [
                -21.592933654785156,
                -33.298988342285156,
                -13.818622589111328
            ],
            "type" : "VEC3"
        },
        {
            "bufferView" : 12,
            "componentType" : 5126,
            "count" : 47218,
            "type" : "VEC3"
        },
        {
            "bufferView" : 13,
            "componentType" : 5126,
            "count" : 47218,
            "type" : "VEC2"
        },
        {
            "bufferView" : 14,
            "componentType" : 5123,
            "count" : 47218,
            "normalized" : true,
            "type" : "VEC4"
        },
        {
            "bufferView" : 15,
            "componentType" : 5123,
            "count" : 63300,
            "type" : "SCALAR"
        },
        {
            "bufferView" : 16,
            "componentType" : 5126,
            "count" : 133,
            "max" : [
                5.5
            ],
            "min" : [
                0
            ],
            "type" : "SCALAR"
        },
        {
            "bufferView" : 17,
            "componentType" : 5126,
            "count" : 133,
            "type" : "VEC3"
        },
        {
            "bufferView" : 18,
            "componentType" : 5126,
            "count" : 133,
            "type" : "VEC4"
        },
        {
            "bufferView" : 19,
            "componentType" : 5126,
            "count" : 133,
            "type" : "VEC3"
        }
    ],
    "bufferViews" : [
        {
            "buffer" : 0,
            "byteLength" : 9720,
            "byteOffset" : 0
        },
        {
            "buffer" : 0,
            "byteLength" : 9720,
            "byteOffset" : 9720
        },
        {
            "buffer" : 0,
            "byteLength" : 6480,
            "byteOffset" : 19440
        },
        {
            "buffer" : 0,
            "byteLength" : 2520,
            "byteOffset" : 25920
        },
        {
            "buffer" : 0,
            "byteLength" : 9720,
            "byteOffset" : 28440
        },
        {
            "buffer" : 0,
            "byteLength" : 9720,
            "byteOffset" : 38160
        },
        {
            "buffer" : 0,
            "byteLength" : 6480,
            "byteOffset" : 47880
        },
        {
            "buffer" : 0,
            "byteLength" : 9720,
            "byteOffset" : 54360
        },
        {
            "buffer" : 0,
            "byteLength" : 9720,
            "byteOffset" : 64080
        },
        {
            "buffer" : 0,
            "byteLength" : 6480,
            "byteOffset" : 73800
        },
        {
            "buffer" : 0,
            "byteLength" : 246630,
            "byteOffset" : 80280
        },
        {
            "buffer" : 0,
            "byteLength" : 566616,
            "byteOffset" : 326912
        },
        {
            "buffer" : 0,
            "byteLength" : 566616,
            "byteOffset" : 893528
        },
        {
            "buffer" : 0,
            "byteLength" : 377744,
            "byteOffset" : 1460144
        },
        {
            "buffer" : 0,
            "byteLength" : 377744,
            "byteOffset" : 1837888
        },
        {
            "buffer" : 0,
            "byteLength" : 126600,
            "byteOffset" : 2215632
        },
        {
            "buffer" : 0,
            "byteLength" : 532,
            "byteOffset" : 2342232
        },
        {
            "buffer" : 0,
            "byteLength" : 1596,
            "byteOffset" : 2342764
        },
        {
            "buffer" : 0,
            "byteLength" : 2128,
            "byteOffset" : 2344360
        },
        {
            "buffer" : 0,
            "byteLength" : 1596,
            "byteOffset" : 2346488
        }
    ],
    "samplers" : [
        {
            "magFilter" : 9729,
            "minFilter" : 9987
        }
    ],
    "buffers" : [
        {
            "byteLength" : 2348084,
            "uri" : "data:application/octet-stream;base64,"
        }
    ]
}
