{
    "asset" : {
        "generator" : "Khronos glTF Blender I/O v1.5.17",
        "version" : "2.0"
    },
    "scene" : 0,
    "scenes" : [
        {
            "name" : "Scene",
            "nodes" : [
                0
            ]
        }
    ],
    "nodes" : [
        {
            "mesh" : 0,
            "name" : "Cube",
            "translation" : [
                0.3810330927371979,
                0.3146631717681885,
                -0.1916491985321045
            ]
        }
    ],
    "materials" : [
        {
            "doubleSided" : true,
            "name" : "Material",
            "pbrMetallicRoughness" : {
                "baseColorFactor" : [
                    0.800000011920929,
                    0.800000011920929,
                    0.800000011920929,
                    1
                ],
                "metallicFactor" : 0,
                "roughnessFactor" : 0.5
            }
        }
    ],
    "meshes" : [
        {
            "name" : "Cube.002",
            "primitives" : [
                {
                    "attributes" : {
                        "POSITION" : 0,
                        "NORMAL" : 1,
                        "TEXCOORD_0" : 2
                    },
                    "indices" : 3,
                    "material" : 0
                }
            ]
        }
    ],
    "accessors" : [
        {
            "bufferView" : 0,
            "componentType" : 5126,
            "count" : 1028,
            "max" : [
                1.8326926231384277,
                5.19179630279541,
                1.590408205986023
            ],
            "min" : [
                -3.1593685150146484,
                -5.810367107391357,
                -1.590408205986023
            ],
            "type" : "VEC3"
        },
        {
            "bufferView" : 1,
            "componentType" : 5126,
            "count" : 1028,
            "type" : "VEC3"
        },
        {
            "bufferView" : 2,
            "componentType" : 5126,
            "count" : 1028,
            "type" : "VEC2"
        },
        {
            "bufferView" : 3,
            "componentType" : 5123,
            "count" : 1248,
            "type" : "SCALAR"
        }
    ],
    "bufferViews" : [
        {
            "buffer" : 0,
            "byteLength" : 12336,
            "byteOffset" : 0
        },
        {
            "buffer" : 0,
            "byteLength" : 12336,
            "byteOffset" : 12336
        },
        {
            "buffer" : 0,
            "byteLength" : 8224,
            "byteOffset" : 24672
        },
        {
            "buffer" : 0,
            "byteLength" : 2496,
            "byteOffset" : 32896
        }
    ],
    "buffers" : [
        {
            "byteLength" : 35392,
            "uri" : "data:application/octet-stream;base64,"
        }
    ]
}
